<?xml version="1.0" encoding="UTF-8"?>
<svg width="291px" height="202px" viewBox="0 0 291 202" version="1.1" xmlns="http://www.w3.org/2000/svg" xmlns:xlink="http://www.w3.org/1999/xlink">
    <!-- Generator: Sketch 53.2 (72643) - https://sketchapp.com -->
    <title>MSP</title>
    <desc>Created with Sketch.</desc>
    <defs>
        <polygon id="path-1" points="110.6118 -0.0002 64.6318 26.5468 95.6028 80.1908 114.1688 59.2538 141.5838 53.6438"></polygon>
        <filter x="-9.1%" y="-6.2%" width="118.2%" height="117.5%" filterUnits="objectBoundingBox" id="filter-2">
            <feOffset dx="0" dy="2" in="SourceAlpha" result="shadowOffsetOuter1"></feOffset>
            <feGaussianBlur stdDeviation="2" in="shadowOffsetOuter1" result="shadowBlurOuter1"></feGaussianBlur>
            <feColorMatrix values="0 0 0 0 0   0 0 0 0 0   0 0 0 0 0  0 0 0 0.2 0" type="matrix" in="shadowBlurOuter1"></feColorMatrix>
        </filter>
        <polygon id="path-3" points="30.9708 -0.0002 -0.0002 53.6438 27.4148 59.2538 45.9798 80.1908 76.9518 26.5468"></polygon>
        <filter x="-9.1%" y="-6.2%" width="118.2%" height="117.5%" filterUnits="objectBoundingBox" id="filter-4">
            <feOffset dx="0" dy="2" in="SourceAlpha" result="shadowOffsetOuter1"></feOffset>
            <feGaussianBlur stdDeviation="2" in="shadowOffsetOuter1" result="shadowBlurOuter1"></feGaussianBlur>
            <feColorMatrix values="0 0 0 0 0   0 0 0 0 0   0 0 0 0 0  0 0 0 0.2 0" type="matrix" in="shadowBlurOuter1"></feColorMatrix>
        </filter>
        <polygon id="path-5" points="0 0 169.323 0 169.323 169.323 0 169.323"></polygon>
        <path d="M146.885,115.8824 L146.885,54.4604 C146.885,51.3344 145.218,48.4454 142.51,46.8824 L89.318,16.1724 C86.61,14.6094 83.275,14.6094 80.568,16.1724 L27.375,46.8824 C24.668,48.4454 23,51.3344 23,54.4614 L23,115.8824 C23,119.0084 24.668,121.8974 27.375,123.4604 L80.568,154.1704 C83.275,155.7344 86.611,155.7344 89.318,154.1704 L142.51,123.4604 C145.218,121.8974 146.885,119.0084 146.885,115.8824" id="path-7"></path>
        <filter x="-4.4%" y="-3.9%" width="110.5%" height="109.3%" filterUnits="objectBoundingBox" id="filter-8">
            <feOffset dx="1" dy="1" in="SourceAlpha" result="shadowOffsetOuter1"></feOffset>
            <feGaussianBlur stdDeviation="2" in="shadowOffsetOuter1" result="shadowBlurOuter1"></feGaussianBlur>
            <feColorMatrix values="0 0 0 0 0   0 0 0 0 0   0 0 0 0 0  0 0 0 0.2 0" type="matrix" in="shadowBlurOuter1"></feColorMatrix>
        </filter>
        <polygon id="path-9" points="0 0.65715 123.885 0.65715 123.885 141 0 141"></polygon>
        <polygon id="path-11" points="0.0006 0.6571 123.8846 0.6571 123.8846 141 0.0006 141"></polygon>
        <polygon id="path-13" points="0 0.129073171 47.8722064 0.129073171 47.8722064 47.6033058 0 47.6033058"></polygon>
    </defs>
    <g id="Page-1" stroke="none" stroke-width="1" fill="none" fill-rule="evenodd">
        <g id="A1-Intro" transform="translate(-37.000000, -80.000000)">
            <g id="MSP" transform="translate(37.000000, 80.000000)">
                <polygon id="Sparkle" fill-opacity="0.3" fill="#C8102E" points="18.542 58 13.344 71.196 1.77635684e-14 76.542 13.906 82.998 18.542 95.085 24.584 82.717 37.085 76.542 24.584 71.196"></polygon>
                <polygon id="Sparkle" fill-opacity="0.15" fill="#C8102E" points="249.542 5 244.344 18.196 231 23.542 244.906 29.998 249.542 42.085 255.584 29.717 268.085 23.542 255.584 18.196"></polygon>
                <polygon id="Sparkle" fill-opacity="0.15" fill="#C8102E" points="48.5421888 3.55271368e-15 45.3064916 8.21436322 37 11.5421888 45.6563303 15.5609769 48.5421888 23.085 52.3032665 15.3860576 60.085 11.5421888 52.3032665 8.21436322"></polygon>
                <polygon id="Sparkle" fill-opacity="0.3" fill="#C8102E" points="281.042256 86 278.507381 92.4352072 272 95.0422562 278.781448 98.1906116 281.042256 104.085 283.988719 98.0535781 290.085 95.0422562 283.988719 92.4352072"></polygon>
                <polygon id="Sparkle" fill-opacity="0.3" fill="#C8102E" points="257.04231 138 255.068093 143.011882 250 145.04231 255.281543 147.494319 257.04231 152.085 259.337081 147.387595 264.085 145.04231 259.337081 143.011882"></polygon>
                <polygon id="Sparkle" fill-opacity="0.15" fill="#C8102E" points="33.5421079 147.085 29.4654238 157.43435 19 161.627108 29.9061888 166.690415 33.5421079 176.17 38.2807237 166.470033 48.085 161.627108 38.2807237 157.43435"></polygon>
                <g id="Badge" transform="translate(66.000000, 13.000000)">
                    <g id="Wings" transform="translate(14.000000, 102.000000)">
                        <g id="Fill-1">
                            <use fill="black" fill-opacity="1" filter="url(#filter-2)" xlink:href="#path-1"></use>
                            <use fill="#63B1BC" fill-rule="evenodd" xlink:href="#path-1"></use>
                        </g>
                        <g id="Fill-2">
                            <use fill="black" fill-opacity="1" filter="url(#filter-4)" xlink:href="#path-3"></use>
                            <use fill="#63B1BC" fill-rule="evenodd" xlink:href="#path-3"></use>
                        </g>
                    </g>
                    <g id="Ribbon">
                        <mask id="mask-6" fill="white">
                            <use xlink:href="#path-5"></use>
                        </mask>
                        <g id="Clip-2"></g>
                        <path d="M167.4263,77.5819 L159.8773,64.5069 L159.8773,49.4099 C159.8773,44.3519 157.1793,39.6769 152.7983,37.1479 L139.7233,29.5999 L132.1753,16.5239 C129.6453,12.1439 124.9713,9.4449 119.9133,9.4449 L104.8153,9.4449 L91.7403,1.8959 C87.3603,-0.6321 81.9633,-0.6321 77.5823,1.8959 L64.5083,9.4449 L49.4103,9.4449 C44.3513,9.4449 39.6773,12.1439 37.1483,16.5249 L29.5993,29.5999 L16.5253,37.1479 C12.1443,39.6779 9.4463,44.3519 9.4463,49.4099 L9.4463,64.5069 L1.8973,77.5819 C-0.6327,81.9629 -0.6327,87.3599 1.8973,91.7409 L9.4463,104.8149 L9.4463,119.9129 C9.4463,124.9709 12.1443,129.6449 16.5253,132.1739 L29.5993,139.7229 L37.1483,152.7979 C39.6773,157.1789 44.3513,159.8769 49.4103,159.8769 L64.5073,159.8769 L77.5823,167.4259 C81.9633,169.9559 87.3603,169.9559 91.7403,167.4259 L104.8163,159.8769 L119.9133,159.8769 C124.9713,159.8769 129.6453,157.1789 132.1753,152.7979 L139.7233,139.7229 L152.7983,132.1739 C157.1793,129.6449 159.8773,124.9709 159.8773,119.9129 L159.8773,104.8149 L167.4263,91.7409 C169.9553,87.3599 169.9553,81.9629 167.4263,77.5819" id="Fill-1" fill="#5BA6A8" mask="url(#mask-6)"></path>
                    </g>
                    <g id="Base-Shadow">
                        <use fill="black" fill-opacity="1" filter="url(#filter-8)" xlink:href="#path-7"></use>
                        <use fill="#FFFFFF" fill-rule="evenodd" xlink:href="#path-7"></use>
                    </g>
                    <g id="Inner" transform="translate(23.000000, 14.000000)">
                        <g id="Base" transform="translate(0.000000, 0.343000)">
                            <mask id="mask-10" fill="white">
                                <use xlink:href="#path-9"></use>
                            </mask>
                            <g id="Clip-2"></g>
                            <path d="M123.885,101.5394 L123.885,40.1174 C123.885,36.9914 122.218,34.1024 119.51,32.5394 L66.318,1.8294 C63.61,0.2664 60.275,0.2664 57.568,1.8294 L4.375,32.5394 C1.668,34.1024 0,36.9914 0,40.1184 L0,101.5394 C0,104.6654 1.668,107.5544 4.375,109.1174 L57.568,139.8274 C60.275,141.3914 63.611,141.3914 66.318,139.8274 L119.51,109.1174 C122.218,107.5544 123.885,104.6654 123.885,101.5394" id="Fill-1" fill="#FFFFFF" mask="url(#mask-10)"></path>
                        </g>
                        <g id="Stroke" transform="translate(0.000000, 0.343000)">
                            <mask id="mask-12" fill="white">
                                <use xlink:href="#path-11"></use>
                            </mask>
                            <g id="Clip-5"></g>
                            <path d="M61.9426,0.6571 C60.4316,0.6571 58.9216,1.0481 57.5676,1.8291 L4.3756,32.5401 C1.6676,34.1031 0.0006,36.9911 0.0006,40.1181 L0.0006,101.5391 C0.0006,104.6651 1.6676,107.5541 4.3756,109.1171 L57.5676,139.8281 C58.9216,140.6091 60.4326,141.0001 61.9426,141.0001 C63.4536,141.0001 64.9636,140.6091 66.3176,139.8271 L119.5096,109.1171 C122.2176,107.5541 123.8846,104.6651 123.8846,101.5391 L123.8846,40.1171 C123.8846,36.9911 122.2176,34.1031 119.5096,32.5401 L66.3176,1.8291 C64.9636,1.0481 63.4536,0.6571 61.9426,0.6571 M61.9426,1.9071 C63.2576,1.9071 64.5536,2.2541 65.6926,2.9121 L118.8846,33.6221 C121.1986,34.9581 122.6346,37.4471 122.6346,40.1171 L122.6346,101.5391 C122.6346,104.2101 121.1986,106.6991 118.8846,108.0341 L65.6926,138.7451 C64.5536,139.4031 63.2576,139.7501 61.9426,139.7501 C60.6286,139.7501 59.3316,139.4031 58.1926,138.7451 L5.0006,108.0341 C2.6866,106.6991 1.2506,104.2101 1.2506,101.5391 L1.2506,40.1181 C1.2506,37.4471 2.6866,34.9581 5.0006,33.6221 L58.1926,2.9121 C59.3316,2.2541 60.6276,1.9071 61.9426,1.9071" id="Fill-4" fill="#E2E2E2" mask="url(#mask-12)"></path>
                        </g>
                        <path d="M66.3044,138.7774 L118.2994,108.7574 C121.0034,107.1964 122.6694,104.3114 122.6694,101.1884 L122.6694,41.1504 C122.6694,40.5414 122.6814,39.8974 122.5904,39.2884 L10.6594,111.6964 L57.5644,138.7774 C60.2684,140.3384 63.6004,140.3384 66.3044,138.7774" id="Reflection" fill="#F4F4F4"></path>
                    </g>
                </g>
                <text id="30-Day" font-family="Montserrat-Bold, Montserrat" font-size="24" font-weight="bold" fill="#53989A">
                    <tspan x="107.86" y="115">30 Day</tspan>
                </text>
                <text id="challenge" font-family="Montserrat-Medium, Montserrat" font-size="17" font-weight="400" fill="#A4AAAF">
                    <tspan x="108.4745" y="135">challenge</tspan>
                </text>
                <g id="Smiley" transform="translate(127.000000, 42.000000)">
                    <g id="Group-3">
                        <mask id="mask-14" fill="white">
                            <use xlink:href="#path-13"></use>
                        </mask>
                        <g id="Clip-2"></g>
                        <path d="M23.3410619,5.17548317 C13.0249998,5.17548317 4.63187906,13.649307 4.63187906,24.064562 C4.63187906,34.479817 13.0249998,42.9536408 23.3410619,42.9536408 C33.657124,42.9536408 42.0502447,34.479817 42.0502447,24.064562 C42.0502447,13.649307 33.657124,5.17548317 23.3410619,5.17548317 M23.3410619,44.8264971 C12.0016448,44.8264971 2.7768595,35.5130119 2.7768595,24.064562 C2.7768595,12.6161121 12.0016448,3.30262689 23.3410619,3.30262689 C34.6799758,3.30262689 43.9052643,12.6161121 43.9052643,24.064562 C43.9052643,35.5130119 34.6799758,44.8264971 23.3410619,44.8264971" id="Fill-1" stroke="#A4AAAF" stroke-width="2" fill="#A9AFB4" mask="url(#mask-14)"></path>
                    </g>
                    <path d="M12.9285142,25.2402898 C12.9285142,25.2402898 15.7216074,29.7178681 23.3382625,29.7178681 C30.9549177,29.7178681 33.5854926,24.9917355 33.5854926,24.9917355 C33.5854926,24.9917355 35.699744,37.5954417 23.1015511,37.6854976 C10.8955219,37.7729805 12.6756519,25.1543507 12.9285142,25.2402898" id="Fill-4" fill="#A7ACB1"></path>
                    <path d="M20.5683793,17.6819863 C20.8707342,19.1678792 20.0644545,18.2765447 17.242987,18.8706 C15.4846218,19.2413187 14.0183795,21.1497404 14.3207345,18.2760417 C14.5059332,16.5175171 15.7787911,15.0743802 17.5765494,15.0743802 C19.3748193,15.0743802 20.2133298,15.9360371 20.5683793,17.6819863" id="Fill-6" fill="#A7ACB1"></path>
                    <path d="M26.241538,17.6819863 C25.9391831,19.1678792 26.7454629,18.2765447 29.5669304,18.8706 C31.3252956,19.2413187 32.7915378,21.1497404 32.4891829,18.2760417 C32.3039841,16.5175171 31.0311262,15.0743802 29.233368,15.0743802 C27.4350981,15.0743802 26.5965876,15.9360371 26.241538,17.6819863" id="Fill-8" fill="#A7ACB1"></path>
                </g>
            </g>
        </g>
    </g>
</svg>